<mxfile host="Electron" modified="2024-04-04T04:48:09.982Z" agent="Mozilla/5.0 (Windows NT 10.0; Win64; x64) AppleWebKit/537.36 (KHTML, like Gecko) draw.io/23.0.2 Chrome/120.0.6099.109 Electron/28.1.0 Safari/537.36" etag="qWHfmipACPu3kxQ3g-Z-" version="23.0.2" type="device">
  <diagram name="Página-1" id="0Y1OqPMgp_wupxUUR3hR">
    <mxGraphModel dx="1498" dy="616" grid="1" gridSize="10" guides="1" tooltips="1" connect="1" arrows="1" fold="1" page="1" pageScale="1" pageWidth="827" pageHeight="1169" math="0" shadow="0">
      <root>
        <mxCell id="0" />
        <mxCell id="1" parent="0" />
        <mxCell id="pn0de0va-eNHweXd-jCz-1" value="Fabricante" style="swimlane;childLayout=stackLayout;horizontal=1;startSize=50;horizontalStack=0;rounded=1;fontSize=14;fontStyle=0;strokeWidth=2;resizeParent=0;resizeLast=1;shadow=0;dashed=0;align=center;arcSize=4;whiteSpace=wrap;html=1;" vertex="1" parent="1">
          <mxGeometry x="50" y="90" width="160" height="120" as="geometry">
            <mxRectangle x="50" y="90" width="80" height="50" as="alternateBounds" />
          </mxGeometry>
        </mxCell>
        <mxCell id="pn0de0va-eNHweXd-jCz-2" value="+Identificador&lt;br&gt;+Nombre" style="align=left;strokeColor=none;fillColor=none;spacingLeft=4;fontSize=12;verticalAlign=top;resizable=0;rotatable=0;part=1;html=1;" vertex="1" parent="pn0de0va-eNHweXd-jCz-1">
          <mxGeometry y="50" width="160" height="70" as="geometry" />
        </mxCell>
        <mxCell id="pn0de0va-eNHweXd-jCz-3" value="ProductoPorFabricante" style="swimlane;childLayout=stackLayout;horizontal=1;startSize=50;horizontalStack=0;rounded=1;fontSize=14;fontStyle=0;strokeWidth=2;resizeParent=0;resizeLast=1;shadow=0;dashed=0;align=center;arcSize=4;whiteSpace=wrap;html=1;" vertex="1" parent="1">
          <mxGeometry x="290" y="90" width="160" height="120" as="geometry" />
        </mxCell>
        <mxCell id="pn0de0va-eNHweXd-jCz-4" value="+Identificdor&lt;br&gt;+NombreProducto&lt;br&gt;+Fabricante" style="align=left;strokeColor=none;fillColor=none;spacingLeft=4;fontSize=12;verticalAlign=top;resizable=0;rotatable=0;part=1;html=1;" vertex="1" parent="pn0de0va-eNHweXd-jCz-3">
          <mxGeometry y="50" width="160" height="70" as="geometry" />
        </mxCell>
        <mxCell id="pn0de0va-eNHweXd-jCz-22" value="Producto" style="swimlane;childLayout=stackLayout;horizontal=1;startSize=50;horizontalStack=0;rounded=1;fontSize=14;fontStyle=0;strokeWidth=2;resizeParent=0;resizeLast=1;shadow=0;dashed=0;align=center;arcSize=4;whiteSpace=wrap;html=1;" vertex="1" parent="1">
          <mxGeometry x="530" y="90" width="160" height="120" as="geometry" />
        </mxCell>
        <mxCell id="pn0de0va-eNHweXd-jCz-23" value="+Identificador&lt;br&gt;+Nombre&lt;br&gt;+ProductoPorFabricante&lt;br&gt;+Categoria" style="align=left;strokeColor=none;fillColor=none;spacingLeft=4;fontSize=12;verticalAlign=top;resizable=0;rotatable=0;part=1;html=1;" vertex="1" parent="pn0de0va-eNHweXd-jCz-22">
          <mxGeometry y="50" width="160" height="70" as="geometry" />
        </mxCell>
        <mxCell id="pn0de0va-eNHweXd-jCz-24" value="ProductoInventario" style="swimlane;childLayout=stackLayout;horizontal=1;startSize=50;horizontalStack=0;rounded=1;fontSize=14;fontStyle=0;strokeWidth=2;resizeParent=0;resizeLast=1;shadow=0;dashed=0;align=center;arcSize=4;whiteSpace=wrap;html=1;" vertex="1" parent="1">
          <mxGeometry x="770" y="90" width="160" height="130" as="geometry" />
        </mxCell>
        <mxCell id="pn0de0va-eNHweXd-jCz-25" value="+Identificacion&lt;br&gt;+Producto&lt;br&gt;+CantidadProductos&lt;br&gt;+PrecioCompraU&lt;br&gt;+FechaCompra" style="align=left;strokeColor=none;fillColor=none;spacingLeft=4;fontSize=12;verticalAlign=top;resizable=0;rotatable=0;part=1;html=1;" vertex="1" parent="pn0de0va-eNHweXd-jCz-24">
          <mxGeometry y="50" width="160" height="80" as="geometry" />
        </mxCell>
        <mxCell id="pn0de0va-eNHweXd-jCz-26" value="Inventario" style="swimlane;childLayout=stackLayout;horizontal=1;startSize=50;horizontalStack=0;rounded=1;fontSize=14;fontStyle=0;strokeWidth=2;resizeParent=0;resizeLast=1;shadow=0;dashed=0;align=center;arcSize=4;whiteSpace=wrap;html=1;" vertex="1" parent="1">
          <mxGeometry x="1010" y="90" width="160" height="120" as="geometry" />
        </mxCell>
        <mxCell id="pn0de0va-eNHweXd-jCz-27" value="+Identificador&lt;br&gt;+Nombre" style="align=left;strokeColor=none;fillColor=none;spacingLeft=4;fontSize=12;verticalAlign=top;resizable=0;rotatable=0;part=1;html=1;" vertex="1" parent="pn0de0va-eNHweXd-jCz-26">
          <mxGeometry y="50" width="160" height="70" as="geometry" />
        </mxCell>
        <mxCell id="pn0de0va-eNHweXd-jCz-28" value="Sucursal" style="swimlane;childLayout=stackLayout;horizontal=1;startSize=50;horizontalStack=0;rounded=1;fontSize=14;fontStyle=0;strokeWidth=2;resizeParent=0;resizeLast=1;shadow=0;dashed=0;align=center;arcSize=4;whiteSpace=wrap;html=1;" vertex="1" parent="1">
          <mxGeometry x="1010" y="410" width="160" height="150" as="geometry" />
        </mxCell>
        <mxCell id="pn0de0va-eNHweXd-jCz-29" value="+Identificador&lt;br&gt;+Pais&lt;br&gt;+Departamento&lt;br&gt;+Ciudad&lt;br&gt;+Sucursal&lt;br&gt;+Ubicacion" style="align=left;strokeColor=none;fillColor=none;spacingLeft=4;fontSize=12;verticalAlign=top;resizable=0;rotatable=0;part=1;html=1;" vertex="1" parent="pn0de0va-eNHweXd-jCz-28">
          <mxGeometry y="50" width="160" height="100" as="geometry" />
        </mxCell>
        <mxCell id="pn0de0va-eNHweXd-jCz-30" value="Trabajador" style="swimlane;childLayout=stackLayout;horizontal=1;startSize=50;horizontalStack=0;rounded=1;fontSize=14;fontStyle=0;strokeWidth=2;resizeParent=0;resizeLast=1;shadow=0;dashed=0;align=center;arcSize=4;whiteSpace=wrap;html=1;" vertex="1" parent="1">
          <mxGeometry x="180" y="240" width="160" height="120" as="geometry" />
        </mxCell>
        <mxCell id="pn0de0va-eNHweXd-jCz-31" value="+Identificador&lt;br&gt;+NombreCompleto&lt;br&gt;+NumeroIdentificacion&lt;br&gt;+Usuario" style="align=left;strokeColor=none;fillColor=none;spacingLeft=4;fontSize=12;verticalAlign=top;resizable=0;rotatable=0;part=1;html=1;" vertex="1" parent="pn0de0va-eNHweXd-jCz-30">
          <mxGeometry y="50" width="160" height="70" as="geometry" />
        </mxCell>
        <mxCell id="pn0de0va-eNHweXd-jCz-32" value="Administrador" style="swimlane;childLayout=stackLayout;horizontal=1;startSize=50;horizontalStack=0;rounded=1;fontSize=14;fontStyle=0;strokeWidth=2;resizeParent=0;resizeLast=1;shadow=0;dashed=0;align=center;arcSize=4;whiteSpace=wrap;html=1;" vertex="1" parent="1">
          <mxGeometry x="180" y="410" width="160" height="120" as="geometry" />
        </mxCell>
        <mxCell id="pn0de0va-eNHweXd-jCz-33" value="+Identificador&lt;br&gt;+NombreCompleto&lt;br&gt;+Usuario&lt;br&gt;+NumeroIdentificacion" style="align=left;strokeColor=none;fillColor=none;spacingLeft=4;fontSize=12;verticalAlign=top;resizable=0;rotatable=0;part=1;html=1;" vertex="1" parent="pn0de0va-eNHweXd-jCz-32">
          <mxGeometry y="50" width="160" height="70" as="geometry" />
        </mxCell>
        <mxCell id="pn0de0va-eNHweXd-jCz-34" value="TipoIdentificacion" style="swimlane;childLayout=stackLayout;horizontal=1;startSize=50;horizontalStack=0;rounded=1;fontSize=14;fontStyle=0;strokeWidth=2;resizeParent=0;resizeLast=1;shadow=0;dashed=0;align=center;arcSize=4;whiteSpace=wrap;html=1;" vertex="1" parent="1">
          <mxGeometry x="180" y="584.5" width="160" height="120" as="geometry" />
        </mxCell>
        <mxCell id="pn0de0va-eNHweXd-jCz-35" value="+Identificador&lt;br&gt;+Nombre" style="align=left;strokeColor=none;fillColor=none;spacingLeft=4;fontSize=12;verticalAlign=top;resizable=0;rotatable=0;part=1;html=1;" vertex="1" parent="pn0de0va-eNHweXd-jCz-34">
          <mxGeometry y="50" width="160" height="70" as="geometry" />
        </mxCell>
        <mxCell id="pn0de0va-eNHweXd-jCz-67" style="edgeStyle=orthogonalEdgeStyle;rounded=0;orthogonalLoop=1;jettySize=auto;html=1;exitX=0;exitY=0.25;exitDx=0;exitDy=0;entryX=1;entryY=0.25;entryDx=0;entryDy=0;endArrow=none;endFill=0;" edge="1" parent="1" source="pn0de0va-eNHweXd-jCz-36" target="pn0de0va-eNHweXd-jCz-31">
          <mxGeometry relative="1" as="geometry">
            <Array as="points">
              <mxPoint x="470" y="440" />
              <mxPoint x="470" y="308" />
            </Array>
          </mxGeometry>
        </mxCell>
        <mxCell id="pn0de0va-eNHweXd-jCz-36" value="SpaOnline" style="swimlane;childLayout=stackLayout;horizontal=1;startSize=50;horizontalStack=0;rounded=1;fontSize=14;fontStyle=0;strokeWidth=2;resizeParent=0;resizeLast=1;shadow=0;dashed=0;align=center;arcSize=4;whiteSpace=wrap;html=1;" vertex="1" parent="1">
          <mxGeometry x="600" y="410" width="160" height="120" as="geometry" />
        </mxCell>
        <mxCell id="pn0de0va-eNHweXd-jCz-37" value="+Identificador&lt;br&gt;+NIT&lt;br&gt;+NombreInstitucion" style="align=left;strokeColor=none;fillColor=none;spacingLeft=4;fontSize=12;verticalAlign=top;resizable=0;rotatable=0;part=1;html=1;" vertex="1" parent="pn0de0va-eNHweXd-jCz-36">
          <mxGeometry y="50" width="160" height="70" as="geometry" />
        </mxCell>
        <mxCell id="pn0de0va-eNHweXd-jCz-38" value="Cliente" style="swimlane;childLayout=stackLayout;horizontal=1;startSize=50;horizontalStack=0;rounded=1;fontSize=14;fontStyle=0;strokeWidth=2;resizeParent=0;resizeLast=1;shadow=0;dashed=0;align=center;arcSize=4;whiteSpace=wrap;html=1;" vertex="1" parent="1">
          <mxGeometry x="590" y="620" width="170" height="150" as="geometry" />
        </mxCell>
        <mxCell id="pn0de0va-eNHweXd-jCz-39" value="+Identificador&lt;br&gt;+Nombre Completo&lt;br&gt;+DocumentoDeIdentificación&lt;br&gt;+NumeroTelefonico&lt;br&gt;+Correo&lt;br&gt;+Direccion" style="align=left;strokeColor=none;fillColor=none;spacingLeft=4;fontSize=12;verticalAlign=top;resizable=0;rotatable=0;part=1;html=1;" vertex="1" parent="pn0de0va-eNHweXd-jCz-38">
          <mxGeometry y="50" width="170" height="100" as="geometry" />
        </mxCell>
        <mxCell id="pn0de0va-eNHweXd-jCz-40" value="CitaReserva" style="swimlane;childLayout=stackLayout;horizontal=1;startSize=50;horizontalStack=0;rounded=1;fontSize=14;fontStyle=0;strokeWidth=2;resizeParent=0;resizeLast=1;shadow=0;dashed=0;align=center;arcSize=4;whiteSpace=wrap;html=1;" vertex="1" parent="1">
          <mxGeometry x="1010" y="620" width="160" height="130" as="geometry" />
        </mxCell>
        <mxCell id="pn0de0va-eNHweXd-jCz-41" value="+Identificador&lt;br&gt;+Fecha&lt;br&gt;+Hora&lt;br&gt;+EstadoDeLaReserva&lt;br&gt;+Sucursal" style="align=left;strokeColor=none;fillColor=none;spacingLeft=4;fontSize=12;verticalAlign=top;resizable=0;rotatable=0;part=1;html=1;" vertex="1" parent="pn0de0va-eNHweXd-jCz-40">
          <mxGeometry y="50" width="160" height="80" as="geometry" />
        </mxCell>
        <mxCell id="pn0de0va-eNHweXd-jCz-42" value="Consentimiento" style="swimlane;childLayout=stackLayout;horizontal=1;startSize=50;horizontalStack=0;rounded=1;fontSize=14;fontStyle=0;strokeWidth=2;resizeParent=0;resizeLast=1;shadow=0;dashed=0;align=center;arcSize=4;whiteSpace=wrap;html=1;" vertex="1" parent="1">
          <mxGeometry x="1420" y="620" width="170" height="120" as="geometry" />
        </mxCell>
        <mxCell id="pn0de0va-eNHweXd-jCz-43" value="+Identificacion&lt;br&gt;+NombreCompleto&lt;br&gt;+Documento de Identificacion&lt;br&gt;+Autorizacion" style="align=left;strokeColor=none;fillColor=none;spacingLeft=4;fontSize=12;verticalAlign=top;resizable=0;rotatable=0;part=1;html=1;" vertex="1" parent="pn0de0va-eNHweXd-jCz-42">
          <mxGeometry y="50" width="170" height="70" as="geometry" />
        </mxCell>
        <mxCell id="pn0de0va-eNHweXd-jCz-44" value="CitaReservaServicio" style="swimlane;childLayout=stackLayout;horizontal=1;startSize=50;horizontalStack=0;rounded=1;fontSize=14;fontStyle=0;strokeWidth=2;resizeParent=0;resizeLast=1;shadow=0;dashed=0;align=center;arcSize=4;whiteSpace=wrap;html=1;" vertex="1" parent="1">
          <mxGeometry x="1010" y="830" width="160" height="120" as="geometry" />
        </mxCell>
        <mxCell id="pn0de0va-eNHweXd-jCz-45" value="+Identificador&lt;br&gt;+EstadoDeLaReserva&lt;br&gt;+NombreServicio" style="align=left;strokeColor=none;fillColor=none;spacingLeft=4;fontSize=12;verticalAlign=top;resizable=0;rotatable=0;part=1;html=1;" vertex="1" parent="pn0de0va-eNHweXd-jCz-44">
          <mxGeometry y="50" width="160" height="70" as="geometry" />
        </mxCell>
        <mxCell id="pn0de0va-eNHweXd-jCz-46" value="Servicio" style="swimlane;childLayout=stackLayout;horizontal=1;startSize=50;horizontalStack=0;rounded=1;fontSize=14;fontStyle=0;strokeWidth=2;resizeParent=0;resizeLast=1;shadow=0;dashed=0;align=center;arcSize=4;whiteSpace=wrap;html=1;" vertex="1" parent="1">
          <mxGeometry x="1010" y="1250" width="160" height="120" as="geometry" />
        </mxCell>
        <mxCell id="pn0de0va-eNHweXd-jCz-47" value="+Identificador&lt;br&gt;+NombreServicio" style="align=left;strokeColor=none;fillColor=none;spacingLeft=4;fontSize=12;verticalAlign=top;resizable=0;rotatable=0;part=1;html=1;" vertex="1" parent="pn0de0va-eNHweXd-jCz-46">
          <mxGeometry y="50" width="160" height="70" as="geometry" />
        </mxCell>
        <mxCell id="pn0de0va-eNHweXd-jCz-48" value="Oferta" style="swimlane;childLayout=stackLayout;horizontal=1;startSize=50;horizontalStack=0;rounded=1;fontSize=14;fontStyle=0;strokeWidth=2;resizeParent=0;resizeLast=1;shadow=0;dashed=0;align=center;arcSize=4;whiteSpace=wrap;html=1;" vertex="1" parent="1">
          <mxGeometry x="1010" y="1470" width="160" height="150" as="geometry" />
        </mxCell>
        <mxCell id="pn0de0va-eNHweXd-jCz-49" value="+Identificador&lt;br&gt;+Servicio&lt;br&gt;+PorcentajeDescuento&lt;br&gt;+FechaInicio&lt;br&gt;+FechaFin&lt;br&gt;+Notificacion" style="align=left;strokeColor=none;fillColor=none;spacingLeft=4;fontSize=12;verticalAlign=top;resizable=0;rotatable=0;part=1;html=1;" vertex="1" parent="pn0de0va-eNHweXd-jCz-48">
          <mxGeometry y="50" width="160" height="100" as="geometry" />
        </mxCell>
        <mxCell id="pn0de0va-eNHweXd-jCz-50" value="Factura" style="swimlane;childLayout=stackLayout;horizontal=1;startSize=50;horizontalStack=0;rounded=1;fontSize=14;fontStyle=0;strokeWidth=2;resizeParent=0;resizeLast=1;shadow=0;dashed=0;align=center;arcSize=4;whiteSpace=wrap;html=1;" vertex="1" parent="1">
          <mxGeometry x="1420" y="830" width="160" height="150" as="geometry" />
        </mxCell>
        <mxCell id="pn0de0va-eNHweXd-jCz-51" value="+Identificador&lt;br&gt;+Servicio&lt;br&gt;+Cantidad&lt;br&gt;+CitaResrva&lt;br&gt;+ValorFacturado&lt;br&gt;+IdPago" style="align=left;strokeColor=none;fillColor=none;spacingLeft=4;fontSize=12;verticalAlign=top;resizable=0;rotatable=0;part=1;html=1;" vertex="1" parent="pn0de0va-eNHweXd-jCz-50">
          <mxGeometry y="50" width="160" height="100" as="geometry" />
        </mxCell>
        <mxCell id="pn0de0va-eNHweXd-jCz-52" value="Pago" style="swimlane;childLayout=stackLayout;horizontal=1;startSize=50;horizontalStack=0;rounded=1;fontSize=14;fontStyle=0;strokeWidth=2;resizeParent=0;resizeLast=1;shadow=0;dashed=0;align=center;arcSize=4;whiteSpace=wrap;html=1;" vertex="1" parent="1">
          <mxGeometry x="1420" y="1040" width="160" height="120" as="geometry" />
        </mxCell>
        <mxCell id="pn0de0va-eNHweXd-jCz-53" value="+Identificador&lt;br&gt;+NombreBanco&lt;br&gt;+Notificado" style="align=left;strokeColor=none;fillColor=none;spacingLeft=4;fontSize=12;verticalAlign=top;resizable=0;rotatable=0;part=1;html=1;" vertex="1" parent="pn0de0va-eNHweXd-jCz-52">
          <mxGeometry y="50" width="160" height="70" as="geometry" />
        </mxCell>
        <mxCell id="pn0de0va-eNHweXd-jCz-54" value="Notificacion" style="swimlane;childLayout=stackLayout;horizontal=1;startSize=50;horizontalStack=0;rounded=1;fontSize=14;fontStyle=0;strokeWidth=2;resizeParent=0;resizeLast=1;shadow=0;dashed=0;align=center;arcSize=4;whiteSpace=wrap;html=1;" vertex="1" parent="1">
          <mxGeometry x="1420" y="1250" width="160" height="120" as="geometry" />
        </mxCell>
        <mxCell id="pn0de0va-eNHweXd-jCz-55" value="+Identificador&lt;br&gt;+Notificado&lt;br&gt;+Pago&lt;br&gt;+Cliente" style="align=left;strokeColor=none;fillColor=none;spacingLeft=4;fontSize=12;verticalAlign=top;resizable=0;rotatable=0;part=1;html=1;" vertex="1" parent="pn0de0va-eNHweXd-jCz-54">
          <mxGeometry y="50" width="160" height="70" as="geometry" />
        </mxCell>
        <mxCell id="pn0de0va-eNHweXd-jCz-56" value="TipoServicio" style="swimlane;childLayout=stackLayout;horizontal=1;startSize=50;horizontalStack=0;rounded=1;fontSize=14;fontStyle=0;strokeWidth=2;resizeParent=0;resizeLast=1;shadow=0;dashed=0;align=center;arcSize=4;whiteSpace=wrap;html=1;" vertex="1" parent="1">
          <mxGeometry x="620" y="1250" width="160" height="120" as="geometry" />
        </mxCell>
        <mxCell id="pn0de0va-eNHweXd-jCz-57" value="+Identificador&lt;br&gt;+TipoServicio" style="align=left;strokeColor=none;fillColor=none;spacingLeft=4;fontSize=12;verticalAlign=top;resizable=0;rotatable=0;part=1;html=1;" vertex="1" parent="pn0de0va-eNHweXd-jCz-56">
          <mxGeometry y="50" width="160" height="70" as="geometry" />
        </mxCell>
        <mxCell id="pn0de0va-eNHweXd-jCz-58" value="TipoPago" style="swimlane;childLayout=stackLayout;horizontal=1;startSize=50;horizontalStack=0;rounded=1;fontSize=14;fontStyle=0;strokeWidth=2;resizeParent=0;resizeLast=1;shadow=0;dashed=0;align=center;arcSize=4;whiteSpace=wrap;html=1;" vertex="1" parent="1">
          <mxGeometry x="1720" y="1040" width="160" height="120" as="geometry" />
        </mxCell>
        <mxCell id="pn0de0va-eNHweXd-jCz-59" value="+Identificador&lt;br&gt;+Nombre" style="align=left;strokeColor=none;fillColor=none;spacingLeft=4;fontSize=12;verticalAlign=top;resizable=0;rotatable=0;part=1;html=1;" vertex="1" parent="pn0de0va-eNHweXd-jCz-58">
          <mxGeometry y="50" width="160" height="70" as="geometry" />
        </mxCell>
        <mxCell id="pn0de0va-eNHweXd-jCz-60" style="edgeStyle=orthogonalEdgeStyle;rounded=0;orthogonalLoop=1;jettySize=auto;html=1;exitX=1;exitY=0.25;exitDx=0;exitDy=0;entryX=0;entryY=0.25;entryDx=0;entryDy=0;endArrow=none;endFill=0;" edge="1" parent="1" source="pn0de0va-eNHweXd-jCz-2" target="pn0de0va-eNHweXd-jCz-4">
          <mxGeometry relative="1" as="geometry" />
        </mxCell>
        <mxCell id="pn0de0va-eNHweXd-jCz-61" style="edgeStyle=orthogonalEdgeStyle;rounded=0;orthogonalLoop=1;jettySize=auto;html=1;exitX=1;exitY=0.25;exitDx=0;exitDy=0;entryX=0;entryY=0.25;entryDx=0;entryDy=0;endArrow=none;endFill=0;" edge="1" parent="1" source="pn0de0va-eNHweXd-jCz-4" target="pn0de0va-eNHweXd-jCz-23">
          <mxGeometry relative="1" as="geometry" />
        </mxCell>
        <mxCell id="pn0de0va-eNHweXd-jCz-62" style="edgeStyle=orthogonalEdgeStyle;rounded=0;orthogonalLoop=1;jettySize=auto;html=1;exitX=1;exitY=0.25;exitDx=0;exitDy=0;entryX=0;entryY=0.25;entryDx=0;entryDy=0;endArrow=none;endFill=0;" edge="1" parent="1" source="pn0de0va-eNHweXd-jCz-23" target="pn0de0va-eNHweXd-jCz-25">
          <mxGeometry relative="1" as="geometry" />
        </mxCell>
        <mxCell id="pn0de0va-eNHweXd-jCz-63" style="edgeStyle=orthogonalEdgeStyle;rounded=0;orthogonalLoop=1;jettySize=auto;html=1;exitX=1;exitY=0.25;exitDx=0;exitDy=0;entryX=0;entryY=0.25;entryDx=0;entryDy=0;endArrow=none;endFill=0;" edge="1" parent="1" source="pn0de0va-eNHweXd-jCz-25" target="pn0de0va-eNHweXd-jCz-27">
          <mxGeometry relative="1" as="geometry" />
        </mxCell>
        <mxCell id="pn0de0va-eNHweXd-jCz-64" style="edgeStyle=orthogonalEdgeStyle;rounded=0;orthogonalLoop=1;jettySize=auto;html=1;exitX=0.5;exitY=1;exitDx=0;exitDy=0;entryX=0.5;entryY=0;entryDx=0;entryDy=0;endArrow=none;endFill=0;" edge="1" parent="1" source="pn0de0va-eNHweXd-jCz-27" target="pn0de0va-eNHweXd-jCz-28">
          <mxGeometry relative="1" as="geometry" />
        </mxCell>
        <mxCell id="pn0de0va-eNHweXd-jCz-65" style="edgeStyle=orthogonalEdgeStyle;rounded=0;orthogonalLoop=1;jettySize=auto;html=1;exitX=0;exitY=0.25;exitDx=0;exitDy=0;entryX=1;entryY=0.25;entryDx=0;entryDy=0;endArrow=none;endFill=0;" edge="1" parent="1" source="pn0de0va-eNHweXd-jCz-29" target="pn0de0va-eNHweXd-jCz-37">
          <mxGeometry relative="1" as="geometry" />
        </mxCell>
        <mxCell id="pn0de0va-eNHweXd-jCz-68" style="edgeStyle=orthogonalEdgeStyle;rounded=0;orthogonalLoop=1;jettySize=auto;html=1;exitX=0;exitY=0.5;exitDx=0;exitDy=0;entryX=1.024;entryY=0.141;entryDx=0;entryDy=0;entryPerimeter=0;endArrow=none;endFill=0;" edge="1" parent="1" source="pn0de0va-eNHweXd-jCz-36" target="pn0de0va-eNHweXd-jCz-33">
          <mxGeometry relative="1" as="geometry" />
        </mxCell>
        <mxCell id="pn0de0va-eNHweXd-jCz-69" style="edgeStyle=orthogonalEdgeStyle;rounded=0;orthogonalLoop=1;jettySize=auto;html=1;exitX=1;exitY=0.25;exitDx=0;exitDy=0;entryX=0.004;entryY=0.626;entryDx=0;entryDy=0;endArrow=none;endFill=0;entryPerimeter=0;" edge="1" parent="1" source="pn0de0va-eNHweXd-jCz-35" target="pn0de0va-eNHweXd-jCz-37">
          <mxGeometry relative="1" as="geometry">
            <Array as="points">
              <mxPoint x="470" y="652" />
              <mxPoint x="470" y="500" />
              <mxPoint x="601" y="500" />
            </Array>
          </mxGeometry>
        </mxCell>
        <mxCell id="pn0de0va-eNHweXd-jCz-70" style="edgeStyle=orthogonalEdgeStyle;rounded=0;orthogonalLoop=1;jettySize=auto;html=1;exitX=0.5;exitY=1;exitDx=0;exitDy=0;entryX=0.5;entryY=0;entryDx=0;entryDy=0;endArrow=none;endFill=0;" edge="1" parent="1" source="pn0de0va-eNHweXd-jCz-29" target="pn0de0va-eNHweXd-jCz-40">
          <mxGeometry relative="1" as="geometry" />
        </mxCell>
        <mxCell id="pn0de0va-eNHweXd-jCz-71" style="edgeStyle=orthogonalEdgeStyle;rounded=0;orthogonalLoop=1;jettySize=auto;html=1;exitX=0.5;exitY=1;exitDx=0;exitDy=0;entryX=0.5;entryY=0;entryDx=0;entryDy=0;endArrow=none;endFill=0;" edge="1" parent="1" source="pn0de0va-eNHweXd-jCz-41" target="pn0de0va-eNHweXd-jCz-44">
          <mxGeometry relative="1" as="geometry" />
        </mxCell>
        <mxCell id="pn0de0va-eNHweXd-jCz-72" style="edgeStyle=orthogonalEdgeStyle;rounded=0;orthogonalLoop=1;jettySize=auto;html=1;exitX=0;exitY=0.25;exitDx=0;exitDy=0;entryX=1;entryY=0.25;entryDx=0;entryDy=0;endArrow=none;endFill=0;" edge="1" parent="1" source="pn0de0va-eNHweXd-jCz-41" target="pn0de0va-eNHweXd-jCz-39">
          <mxGeometry relative="1" as="geometry" />
        </mxCell>
        <mxCell id="pn0de0va-eNHweXd-jCz-73" style="edgeStyle=orthogonalEdgeStyle;rounded=0;orthogonalLoop=1;jettySize=auto;html=1;exitX=1;exitY=0.25;exitDx=0;exitDy=0;entryX=0;entryY=0.25;entryDx=0;entryDy=0;endArrow=none;endFill=0;" edge="1" parent="1" source="pn0de0va-eNHweXd-jCz-41" target="pn0de0va-eNHweXd-jCz-43">
          <mxGeometry relative="1" as="geometry" />
        </mxCell>
        <mxCell id="pn0de0va-eNHweXd-jCz-74" style="edgeStyle=orthogonalEdgeStyle;rounded=0;orthogonalLoop=1;jettySize=auto;html=1;exitX=1;exitY=0.75;exitDx=0;exitDy=0;entryX=0;entryY=0.25;entryDx=0;entryDy=0;endArrow=none;endFill=0;" edge="1" parent="1" source="pn0de0va-eNHweXd-jCz-41" target="pn0de0va-eNHweXd-jCz-51">
          <mxGeometry relative="1" as="geometry" />
        </mxCell>
        <mxCell id="pn0de0va-eNHweXd-jCz-75" style="edgeStyle=orthogonalEdgeStyle;rounded=0;orthogonalLoop=1;jettySize=auto;html=1;exitX=0.5;exitY=1;exitDx=0;exitDy=0;entryX=0.5;entryY=0;entryDx=0;entryDy=0;endArrow=none;endFill=0;" edge="1" parent="1" source="pn0de0va-eNHweXd-jCz-45" target="pn0de0va-eNHweXd-jCz-46">
          <mxGeometry relative="1" as="geometry" />
        </mxCell>
        <mxCell id="pn0de0va-eNHweXd-jCz-76" style="edgeStyle=orthogonalEdgeStyle;rounded=0;orthogonalLoop=1;jettySize=auto;html=1;exitX=0.5;exitY=1;exitDx=0;exitDy=0;entryX=0.5;entryY=0;entryDx=0;entryDy=0;endArrow=none;endFill=0;" edge="1" parent="1" source="pn0de0va-eNHweXd-jCz-51" target="pn0de0va-eNHweXd-jCz-52">
          <mxGeometry relative="1" as="geometry" />
        </mxCell>
        <mxCell id="pn0de0va-eNHweXd-jCz-77" style="edgeStyle=orthogonalEdgeStyle;rounded=0;orthogonalLoop=1;jettySize=auto;html=1;exitX=0.5;exitY=1;exitDx=0;exitDy=0;endArrow=none;endFill=0;" edge="1" parent="1" source="pn0de0va-eNHweXd-jCz-53" target="pn0de0va-eNHweXd-jCz-54">
          <mxGeometry relative="1" as="geometry" />
        </mxCell>
        <mxCell id="pn0de0va-eNHweXd-jCz-79" style="edgeStyle=orthogonalEdgeStyle;rounded=0;orthogonalLoop=1;jettySize=auto;html=1;exitX=1;exitY=0.25;exitDx=0;exitDy=0;entryX=0;entryY=0.25;entryDx=0;entryDy=0;endArrow=none;endFill=0;" edge="1" parent="1" source="pn0de0va-eNHweXd-jCz-53" target="pn0de0va-eNHweXd-jCz-59">
          <mxGeometry relative="1" as="geometry" />
        </mxCell>
        <mxCell id="pn0de0va-eNHweXd-jCz-80" style="edgeStyle=orthogonalEdgeStyle;rounded=0;orthogonalLoop=1;jettySize=auto;html=1;exitX=0.5;exitY=1;exitDx=0;exitDy=0;entryX=0.5;entryY=0;entryDx=0;entryDy=0;endArrow=none;endFill=0;" edge="1" parent="1" source="pn0de0va-eNHweXd-jCz-47" target="pn0de0va-eNHweXd-jCz-48">
          <mxGeometry relative="1" as="geometry" />
        </mxCell>
        <mxCell id="pn0de0va-eNHweXd-jCz-81" style="edgeStyle=orthogonalEdgeStyle;rounded=0;orthogonalLoop=1;jettySize=auto;html=1;exitX=0;exitY=0.25;exitDx=0;exitDy=0;entryX=1;entryY=0.25;entryDx=0;entryDy=0;endArrow=none;endFill=0;" edge="1" parent="1" source="pn0de0va-eNHweXd-jCz-47" target="pn0de0va-eNHweXd-jCz-57">
          <mxGeometry relative="1" as="geometry" />
        </mxCell>
        <mxCell id="pn0de0va-eNHweXd-jCz-82" value="1" style="text;html=1;align=center;verticalAlign=middle;resizable=0;points=[];autosize=1;strokeColor=none;fillColor=none;" vertex="1" parent="1">
          <mxGeometry x="210" y="160" width="30" height="30" as="geometry" />
        </mxCell>
        <mxCell id="pn0de0va-eNHweXd-jCz-83" value="1..*" style="text;html=1;align=center;verticalAlign=middle;resizable=0;points=[];autosize=1;strokeColor=none;fillColor=none;" vertex="1" parent="1">
          <mxGeometry x="255" y="130" width="40" height="30" as="geometry" />
        </mxCell>
        <mxCell id="pn0de0va-eNHweXd-jCz-84" value="1" style="text;html=1;align=center;verticalAlign=middle;resizable=0;points=[];autosize=1;strokeColor=none;fillColor=none;" vertex="1" parent="1">
          <mxGeometry x="500" y="130" width="30" height="30" as="geometry" />
        </mxCell>
        <mxCell id="pn0de0va-eNHweXd-jCz-85" value="1..*" style="text;html=1;align=center;verticalAlign=middle;resizable=0;points=[];autosize=1;strokeColor=none;fillColor=none;" vertex="1" parent="1">
          <mxGeometry x="450" y="160" width="40" height="30" as="geometry" />
        </mxCell>
        <mxCell id="pn0de0va-eNHweXd-jCz-86" value="1..*" style="text;html=1;align=center;verticalAlign=middle;resizable=0;points=[];autosize=1;strokeColor=none;fillColor=none;" vertex="1" parent="1">
          <mxGeometry x="730" y="130" width="40" height="30" as="geometry" />
        </mxCell>
        <mxCell id="pn0de0va-eNHweXd-jCz-87" value="1" style="text;html=1;align=center;verticalAlign=middle;resizable=0;points=[];autosize=1;strokeColor=none;fillColor=none;" vertex="1" parent="1">
          <mxGeometry x="690" y="160" width="30" height="30" as="geometry" />
        </mxCell>
        <mxCell id="pn0de0va-eNHweXd-jCz-88" value="1..*" style="text;html=1;align=center;verticalAlign=middle;resizable=0;points=[];autosize=1;strokeColor=none;fillColor=none;" vertex="1" parent="1">
          <mxGeometry x="930" y="160" width="40" height="30" as="geometry" />
        </mxCell>
        <mxCell id="pn0de0va-eNHweXd-jCz-89" value="1" style="text;html=1;align=center;verticalAlign=middle;resizable=0;points=[];autosize=1;strokeColor=none;fillColor=none;" vertex="1" parent="1">
          <mxGeometry x="980" y="130" width="30" height="30" as="geometry" />
        </mxCell>
        <mxCell id="pn0de0va-eNHweXd-jCz-90" value="1" style="text;html=1;align=center;verticalAlign=middle;resizable=0;points=[];autosize=1;strokeColor=none;fillColor=none;" vertex="1" parent="1">
          <mxGeometry x="1060" y="210" width="30" height="30" as="geometry" />
        </mxCell>
        <mxCell id="pn0de0va-eNHweXd-jCz-91" value="1" style="text;html=1;align=center;verticalAlign=middle;resizable=0;points=[];autosize=1;strokeColor=none;fillColor=none;" vertex="1" parent="1">
          <mxGeometry x="1090" y="380" width="30" height="30" as="geometry" />
        </mxCell>
        <mxCell id="pn0de0va-eNHweXd-jCz-92" value="1..*" style="text;html=1;align=center;verticalAlign=middle;resizable=0;points=[];autosize=1;strokeColor=none;fillColor=none;" vertex="1" parent="1">
          <mxGeometry x="970" y="450" width="40" height="30" as="geometry" />
        </mxCell>
        <mxCell id="pn0de0va-eNHweXd-jCz-93" value="1" style="text;html=1;align=center;verticalAlign=middle;resizable=0;points=[];autosize=1;strokeColor=none;fillColor=none;" vertex="1" parent="1">
          <mxGeometry x="760" y="480" width="30" height="30" as="geometry" />
        </mxCell>
        <mxCell id="pn0de0va-eNHweXd-jCz-94" value="0..*" style="text;html=1;align=center;verticalAlign=middle;resizable=0;points=[];autosize=1;strokeColor=none;fillColor=none;" vertex="1" parent="1">
          <mxGeometry x="340" y="310" width="40" height="30" as="geometry" />
        </mxCell>
        <mxCell id="pn0de0va-eNHweXd-jCz-95" value="0..*" style="text;html=1;align=center;verticalAlign=middle;resizable=0;points=[];autosize=1;strokeColor=none;fillColor=none;" vertex="1" parent="1">
          <mxGeometry x="340" y="470" width="40" height="30" as="geometry" />
        </mxCell>
        <mxCell id="pn0de0va-eNHweXd-jCz-96" value="1" style="text;html=1;align=center;verticalAlign=middle;resizable=0;points=[];autosize=1;strokeColor=none;fillColor=none;" vertex="1" parent="1">
          <mxGeometry x="340" y="650" width="30" height="30" as="geometry" />
        </mxCell>
        <mxCell id="pn0de0va-eNHweXd-jCz-97" value="1" style="text;html=1;align=center;verticalAlign=middle;resizable=0;points=[];autosize=1;strokeColor=none;fillColor=none;" vertex="1" parent="1">
          <mxGeometry x="570" y="410" width="30" height="30" as="geometry" />
        </mxCell>
        <mxCell id="pn0de0va-eNHweXd-jCz-98" value="1" style="text;html=1;align=center;verticalAlign=middle;resizable=0;points=[];autosize=1;strokeColor=none;fillColor=none;" vertex="1" parent="1">
          <mxGeometry x="570" y="440" width="30" height="30" as="geometry" />
        </mxCell>
        <mxCell id="pn0de0va-eNHweXd-jCz-99" value="1..*" style="text;html=1;align=center;verticalAlign=middle;resizable=0;points=[];autosize=1;strokeColor=none;fillColor=none;" vertex="1" parent="1">
          <mxGeometry x="560" y="470" width="40" height="30" as="geometry" />
        </mxCell>
        <mxCell id="pn0de0va-eNHweXd-jCz-100" value="1" style="text;html=1;align=center;verticalAlign=middle;resizable=0;points=[];autosize=1;strokeColor=none;fillColor=none;" vertex="1" parent="1">
          <mxGeometry x="1060" y="560" width="30" height="30" as="geometry" />
        </mxCell>
        <mxCell id="pn0de0va-eNHweXd-jCz-101" value="0..*" style="text;html=1;align=center;verticalAlign=middle;resizable=0;points=[];autosize=1;strokeColor=none;fillColor=none;" vertex="1" parent="1">
          <mxGeometry x="1090" y="590" width="40" height="30" as="geometry" />
        </mxCell>
        <mxCell id="pn0de0va-eNHweXd-jCz-102" value="0..*" style="text;html=1;align=center;verticalAlign=middle;resizable=0;points=[];autosize=1;strokeColor=none;fillColor=none;" vertex="1" parent="1">
          <mxGeometry x="970" y="660" width="40" height="30" as="geometry" />
        </mxCell>
        <mxCell id="pn0de0va-eNHweXd-jCz-103" value="1" style="text;html=1;align=center;verticalAlign=middle;resizable=0;points=[];autosize=1;strokeColor=none;fillColor=none;" vertex="1" parent="1">
          <mxGeometry x="760" y="690" width="30" height="30" as="geometry" />
        </mxCell>
        <mxCell id="pn0de0va-eNHweXd-jCz-104" value="1" style="text;html=1;align=center;verticalAlign=middle;resizable=0;points=[];autosize=1;strokeColor=none;fillColor=none;" vertex="1" parent="1">
          <mxGeometry x="1060" y="750" width="30" height="30" as="geometry" />
        </mxCell>
        <mxCell id="pn0de0va-eNHweXd-jCz-105" value="0..*" style="text;html=1;align=center;verticalAlign=middle;resizable=0;points=[];autosize=1;strokeColor=none;fillColor=none;" vertex="1" parent="1">
          <mxGeometry x="1090" y="800" width="40" height="30" as="geometry" />
        </mxCell>
        <mxCell id="pn0de0va-eNHweXd-jCz-106" value="0..*" style="text;html=1;align=center;verticalAlign=middle;resizable=0;points=[];autosize=1;strokeColor=none;fillColor=none;" vertex="1" parent="1">
          <mxGeometry x="1050" y="950" width="40" height="30" as="geometry" />
        </mxCell>
        <mxCell id="pn0de0va-eNHweXd-jCz-107" value="1" style="text;html=1;align=center;verticalAlign=middle;resizable=0;points=[];autosize=1;strokeColor=none;fillColor=none;" vertex="1" parent="1">
          <mxGeometry x="1090" y="1220" width="30" height="30" as="geometry" />
        </mxCell>
        <mxCell id="pn0de0va-eNHweXd-jCz-108" value="1..*" style="text;html=1;align=center;verticalAlign=middle;resizable=0;points=[];autosize=1;strokeColor=none;fillColor=none;" vertex="1" parent="1">
          <mxGeometry x="975" y="1290" width="40" height="30" as="geometry" />
        </mxCell>
        <mxCell id="pn0de0va-eNHweXd-jCz-109" value="1" style="text;html=1;align=center;verticalAlign=middle;resizable=0;points=[];autosize=1;strokeColor=none;fillColor=none;" vertex="1" parent="1">
          <mxGeometry x="780" y="1320" width="30" height="30" as="geometry" />
        </mxCell>
        <mxCell id="pn0de0va-eNHweXd-jCz-110" value="1" style="text;html=1;align=center;verticalAlign=middle;resizable=0;points=[];autosize=1;strokeColor=none;fillColor=none;" vertex="1" parent="1">
          <mxGeometry x="1060" y="1370" width="30" height="30" as="geometry" />
        </mxCell>
        <mxCell id="pn0de0va-eNHweXd-jCz-111" value="0..*" style="text;html=1;align=center;verticalAlign=middle;resizable=0;points=[];autosize=1;strokeColor=none;fillColor=none;" vertex="1" parent="1">
          <mxGeometry x="1090" y="1440" width="40" height="30" as="geometry" />
        </mxCell>
        <mxCell id="pn0de0va-eNHweXd-jCz-112" style="edgeStyle=orthogonalEdgeStyle;rounded=0;orthogonalLoop=1;jettySize=auto;html=1;exitX=0;exitY=0.25;exitDx=0;exitDy=0;entryX=1;entryY=0.25;entryDx=0;entryDy=0;endArrow=none;endFill=0;" edge="1" parent="1" source="pn0de0va-eNHweXd-jCz-55" target="pn0de0va-eNHweXd-jCz-47">
          <mxGeometry relative="1" as="geometry" />
        </mxCell>
        <mxCell id="pn0de0va-eNHweXd-jCz-113" value="0..*" style="text;html=1;align=center;verticalAlign=middle;resizable=0;points=[];autosize=1;strokeColor=none;fillColor=none;" vertex="1" parent="1">
          <mxGeometry x="1380" y="1290" width="40" height="30" as="geometry" />
        </mxCell>
        <mxCell id="pn0de0va-eNHweXd-jCz-114" value="1" style="text;html=1;align=center;verticalAlign=middle;resizable=0;points=[];autosize=1;strokeColor=none;fillColor=none;" vertex="1" parent="1">
          <mxGeometry x="1170" y="1320" width="30" height="30" as="geometry" />
        </mxCell>
        <mxCell id="pn0de0va-eNHweXd-jCz-115" value="1" style="text;html=1;align=center;verticalAlign=middle;resizable=0;points=[];autosize=1;strokeColor=none;fillColor=none;" vertex="1" parent="1">
          <mxGeometry x="1500" y="1220" width="30" height="30" as="geometry" />
        </mxCell>
        <mxCell id="pn0de0va-eNHweXd-jCz-116" value="1" style="text;html=1;align=center;verticalAlign=middle;resizable=0;points=[];autosize=1;strokeColor=none;fillColor=none;" vertex="1" parent="1">
          <mxGeometry x="1470" y="1160" width="30" height="30" as="geometry" />
        </mxCell>
        <mxCell id="pn0de0va-eNHweXd-jCz-117" value="1" style="text;html=1;align=center;verticalAlign=middle;resizable=0;points=[];autosize=1;strokeColor=none;fillColor=none;" vertex="1" parent="1">
          <mxGeometry x="1500" y="1010" width="30" height="30" as="geometry" />
        </mxCell>
        <mxCell id="pn0de0va-eNHweXd-jCz-118" value="1" style="text;html=1;align=center;verticalAlign=middle;resizable=0;points=[];autosize=1;strokeColor=none;fillColor=none;" vertex="1" parent="1">
          <mxGeometry x="1470" y="980" width="30" height="30" as="geometry" />
        </mxCell>
        <mxCell id="pn0de0va-eNHweXd-jCz-119" value="1" style="text;html=1;align=center;verticalAlign=middle;resizable=0;points=[];autosize=1;strokeColor=none;fillColor=none;" vertex="1" parent="1">
          <mxGeometry x="1390" y="870" width="30" height="30" as="geometry" />
        </mxCell>
        <mxCell id="pn0de0va-eNHweXd-jCz-120" value="1" style="text;html=1;align=center;verticalAlign=middle;resizable=0;points=[];autosize=1;strokeColor=none;fillColor=none;" vertex="1" parent="1">
          <mxGeometry x="1170" y="720" width="30" height="30" as="geometry" />
        </mxCell>
        <mxCell id="pn0de0va-eNHweXd-jCz-121" value="1" style="text;html=1;align=center;verticalAlign=middle;resizable=0;points=[];autosize=1;strokeColor=none;fillColor=none;" vertex="1" parent="1">
          <mxGeometry x="1170" y="690" width="30" height="30" as="geometry" />
        </mxCell>
        <mxCell id="pn0de0va-eNHweXd-jCz-122" value="1" style="text;html=1;align=center;verticalAlign=middle;resizable=0;points=[];autosize=1;strokeColor=none;fillColor=none;" vertex="1" parent="1">
          <mxGeometry x="1385" y="660" width="30" height="30" as="geometry" />
        </mxCell>
        <mxCell id="pn0de0va-eNHweXd-jCz-123" value="1" style="text;html=1;align=center;verticalAlign=middle;resizable=0;points=[];autosize=1;strokeColor=none;fillColor=none;" vertex="1" parent="1">
          <mxGeometry x="1690" y="1080" width="30" height="30" as="geometry" />
        </mxCell>
        <mxCell id="pn0de0va-eNHweXd-jCz-124" value="1" style="text;html=1;align=center;verticalAlign=middle;resizable=0;points=[];autosize=1;strokeColor=none;fillColor=none;" vertex="1" parent="1">
          <mxGeometry x="1580" y="1110" width="30" height="30" as="geometry" />
        </mxCell>
      </root>
    </mxGraphModel>
  </diagram>
</mxfile>
